<!-- icon666.com - MILLIONS vector ICONS FREE --><svg id="Capa_1" enable-background="new 0 0 512 512" viewBox="0 0 512 512" xmlns="http://www.w3.org/2000/svg"><g><g><path d="m40.812 492.399 19.599 19.599c65.13-20.457 199.858-110.061 290.989-201.192 80.928-80.928 194.335-210.093 151.056-280.052l-236.125 226.126z" fill="#00c7ce"></path><path d="m201.192 160.598c-91.131 91.131-180.735 225.859-201.192 290.989l19.599 19.599 225.519-215.519 236.126-246.126c-69.959-43.278-199.124 70.129-280.052 151.057z" fill="#00e7f0"></path></g><g><path d="m481.244 9.541-461.645 461.645 10.606 10.606 226.123-216.122 236.729-246.729c-3.714-3.713-7.66-6.83-11.813-9.4z" fill="#00719b"></path><path d="m30.205 481.793 10.607 10.607 461.644-461.646c-2.569-4.153-5.686-8.1-9.4-11.813z" fill="#004c82"></path></g><g><path d="m94.554 73.339-21.213 21.213 172.053 172.052 20.934-.934.279-20.279z" fill="#e6e6f2"></path><path d="m314.001 225.76h30v206.476h-30z" fill="#cfcfe7" transform="matrix(.707 -.707 .707 .707 -136.275 329)"></path></g><g><path d="m47.735 32.732h30v60h-30z" fill="#004c82" transform="matrix(.707 -.707 .707 .707 -25.984 62.734)"></path></g><g><path d="m-1.869 26.519h86.779v30h-86.779z" fill="#00719b" transform="matrix(.707 -.707 .707 .707 -17.197 41.52)"></path></g><g><path d="m55.004 68.946h57.887v30h-57.887z" fill="#00719b" transform="matrix(.707 -.707 .707 .707 -34.771 83.947)"></path></g><g><path d="m447.422 378.667 64.578 64.578-68.753 68.753-64.578-64.578c-18.986-18.986-18.986-49.767 0-68.753 18.986-18.986 49.767-18.986 68.753 0z" fill="#004c82"></path></g></g></svg>