<!-- icon666.com - MILLIONS vector ICONS FREE --><svg id="Layer_1" viewBox="0 0 512 512" xmlns="http://www.w3.org/2000/svg" data-name="Layer 1"><path d="m293.558 302.441c.351-57.479 12.949-108.791-25.837-159.781-10.486-14.06-11.651-32.4-10.941-49.34h-39.94c3.321 41.571-14.962 48.27-29.05 82.45l18.29 320.23h78.46l15.41-14.62v-151.82a54.25 54.25 0 0 1 -6.392-27.119z" fill="#fb6771"></path><path d="m216.84 16h39.94v77.32h-39.94z" fill="#fff27d"></path><path d="m207.79 175.77c14.088-34.18 32.371-40.879 29.05-82.45h-20c3.321 41.571-14.962 48.27-29.05 82.45l18.29 320.23h25a10.151 10.151 0 0 0 10.15-10.15v-210.84c-1.648-54.271 10.605-59.743-33.44-99.24z" fill="#c6666f"></path><path d="m216.84 16h20v77.32h-20z" fill="#e5dea8"></path><path d="m411.46 496h-126.92a14.3 14.3 0 0 1 9.42-13.44c3.39-1.249 32.128-11.679 36.28-13.2a14.289 14.289 0 0 0 9.41-13.44v-98.19a54.539 54.539 0 0 1 -46.09-55.29c1.291-47.951 3.891-144.844 5.18-192.9h98.53l5.18 192.9a54.488 54.488 0 0 1 -46.1 55.29v98.19a14.3 14.3 0 0 0 9.42 13.44l36.28 13.2a14.285 14.285 0 0 1 9.41 13.44z" fill="#e6f0ff"></path><path d="m313.96 482.56c3.39-1.248 32.128-11.679 36.28-13.2a14.258 14.258 0 0 0 7.76-6.787 14.255 14.255 0 0 1 -1.652-6.653v-98.19c.553-.085 1.1-.191 1.645-.292a54.543 54.543 0 0 1 -44.435-55c1.291-47.951 3.891-144.844 5.18-192.9h-20c-1.289 48.056-3.889 144.949-5.18 192.9a54.539 54.539 0 0 0 46.09 55.29v98.19a14.289 14.289 0 0 1 -9.41 13.44c-4.152 1.521-32.89 11.952-36.28 13.2a14.3 14.3 0 0 0 -9.418 13.442h20a14.3 14.3 0 0 1 9.42-13.44z" fill="#bfd3f7"></path><path d="m383.25 303.69c1.612 31.354-39.183 48.577-60.51 25.539a34.922 34.922 0 0 1 -9.98-25.539l4.01-115.22h62.46z" fill="#fb6771"></path><path d="m221.23 275.01h52.91v136.4h-52.91z" fill="#f9d438"></path><path d="m221.23 227.42v258.43a10.151 10.151 0 0 1 -10.15 10.15h-100.39a10.144 10.144 0 0 1 -10.15-10.15v-258.43a43.961 43.961 0 0 1 12.88-31.09l23.65-23.65a18.057 18.057 0 0 0 5.29-12.78v-30.75h37.05v30.75a18.057 18.057 0 0 0 5.29 12.78l23.65 23.65a43.961 43.961 0 0 1 12.88 31.09z" fill="#4e6cca"></path><path d="m130.54 485.85v-258.43a43.961 43.961 0 0 1 12.88-31.09l23.65-23.65a18.057 18.057 0 0 0 5.29-12.78v-30.75h-30v30.75a18.057 18.057 0 0 1 -5.29 12.78l-23.65 23.65a43.961 43.961 0 0 0 -12.88 31.09v258.43a10.144 10.144 0 0 0 10.15 10.15h30a10.144 10.144 0 0 1 -10.15-10.15z" fill="#7da2ff"></path><path d="m138.78 77.77h44.21v51.38h-44.21z" fill="#49bdff"></path><path d="m138.78 77.77h30v51.38h-30z" fill="#aee6ff"></path><g fill="#f4f8fc"><path d="m124.949 313.869a5 5 0 0 1 -5-5v-15.525a5 5 0 0 1 10 0v15.525a5 5 0 0 1 -5 5z"></path><path d="m124.949 435.245a5 5 0 0 1 -5-5v-95.02a5 5 0 0 1 10 0v95.02a5 5 0 0 1 -5 5z"></path></g></svg>