<!-- icon666.com - MILLIONS vector ICONS FREE --><svg id="Capa_1" enable-background="new 0 0 512 512" viewBox="0 0 512 512" xmlns="http://www.w3.org/2000/svg" xmlns:xlink="http://www.w3.org/1999/xlink"><linearGradient id="SVGID_1_" gradientUnits="userSpaceOnUse" x1="-6.086" x2="419.466" y1="431.694" y2="6.143"><stop offset="0" stop-color="#ffd8d8" stop-opacity="0"></stop><stop offset=".9981" stop-color="#ffb2b2"></stop></linearGradient><linearGradient id="SVGID_2_" gradientUnits="userSpaceOnUse" x1="258.686" x2="258.686" y1="479.179" y2="223.885"><stop offset="0" stop-color="#ff4d4d" stop-opacity=".4"></stop><stop offset=".1463" stop-color="#ff4d4d" stop-opacity=".342"></stop><stop offset="1" stop-color="#ff4d4d" stop-opacity="0"></stop></linearGradient><g><g><path d="m451.798 43.963c-160.556-97.869-410.51-8.611-439.594 61.949-38.908 94.394 26.578 110.528 38.743 187.874 9.761 62.061-51.182 121.495-16.394 176.282 37.883 59.663 163.465 44.681 211.198 16.447 87.376-51.683 43.309-112.012 84.684-187.299 39.407-71.707 116.244-42.625 160.961-99.99 42.5-54.521 14.31-122.402-39.598-155.263z" fill="url(#SVGID_1_)"></path></g><g><g><g><g><g><path d="m155.031 386.012c0-6.133 4.972-11.104 11.104-11.104h185.16c6.133 0 11.104 4.972 11.104 11.104 0 6.133-4.972 11.104-11.104 11.104h-185.16c-6.133 0-11.104-4.971-11.104-11.104z" fill="#9393ff"></path></g></g><g><g><g><g><g><path d="m383.479 466.865c-5.763 2.098-12.135-.874-14.233-6.637l-58.54-160.838c-2.098-5.763.874-12.135 6.637-14.233 5.763-2.098 12.135.874 14.233 6.637l58.54 160.838c2.098 5.764-.874 12.136-6.637 14.233z" fill="#ff9c33"></path></g><g><path d="m346.2 331.96c-5.51 5.65-11.58 10.75-18.1 15.22l-17.39-47.79c-2.1-5.76.87-12.13 6.63-14.23 1.26-.46 2.54-.67 3.8-.67 4.54 0 8.8 2.8 10.44 7.31z" fill="#ff8a00"></path></g></g><g><g><path d="m133.892 466.865c5.763 2.098 12.135-.874 14.233-6.637l58.54-160.838c2.098-5.763-.874-12.135-6.637-14.233-5.763-2.098-12.135.874-14.233 6.637l-58.54 160.838c-2.098 5.764.874 12.136 6.637 14.233z" fill="#ff9c33"></path></g><g><path d="m206.66 299.39-16.8 46.16c-6.48-4.67-12.46-9.96-17.88-15.79l13.82-37.96c1.63-4.51 5.89-7.31 10.43-7.31 1.26 0 2.54.21 3.8.67 5.76 2.1 8.73 8.47 6.63 14.23z" fill="#ff8a00"></path></g></g></g><path d="m141.381 243.301c9.284 57.219 58.914 100.906 118.755 100.906s109.47-43.688 118.755-100.906z" fill="#ff6c6c"></path><path d="m364.483 283.792c7.074-12.296 12.048-25.953 14.407-40.491h-237.509c2.359 14.538 7.332 28.195 14.407 40.491z" fill="#ff4d4d"></path><g><path d="m150.766 263.026h215.838c11.046 0 20-8.954 20-20v-9.141c0-5.523-4.477-10-10-10h-235.838c-5.523 0-10 4.477-10 10v9.141c0 11.046 8.955 20 20 20z" fill="#9393ff"></path></g><g><path d="m386.605 238.691v-4.806c0-5.523-4.477-10-10-10h-235.839c-5.523 0-10 4.477-10 10v4.806z" fill="#6c6cff"></path></g><g><path d="m177.305 57.906c-56.187 35.481-72.972 109.792-37.492 165.979l199.151-125.759c2.391-1.51 3.077-4.716 1.468-7.041-36.49-52.714-108.405-67.735-163.127-33.179z" fill="#ff6c6c"></path><path d="m187.705 115.036c0-19.398-9.094-36.661-23.238-47.795-32.321 26.894-47.561 68.239-42.193 108.412 1.527.115 3.065.193 4.622.193 33.584-.001 60.809-27.226 60.809-60.81z" fill="#ff4d4d"></path><path d="m338.96 98.13-199.15 125.76c-3.96-6.28-7.27-12.79-9.94-19.44l200.14-126.4c3.72 4.05 7.21 8.39 10.42 13.03 1.61 2.33.92 5.54-1.47 7.05z" fill="#ff9393"></path><path d="m356.588 50.134c-4.246-6.724-13.172-8.74-19.896-4.494l-25.672 15.736c2.897 2.047 5.708 4.239 8.435 6.557l22.576-13.838c2.061-1.302 4.8-.684 6.101 1.378 1.302 2.062.684 4.799-1.377 6.102l-49.006 30.946c-2.335 1.474-3.033 4.563-1.558 6.897.951 1.506 2.574 2.331 4.232 2.331.913 0 1.836-.25 2.665-.773l49.007-30.946c6.723-4.246 8.738-13.171 4.493-19.896z" fill="#fff"></path></g><g><g><path d="m259.715 472.696c-6.133 0-11.104-4.972-11.104-11.104v-151.16c0-6.133 4.972-11.104 11.104-11.104 6.133 0 11.104 4.972 11.104 11.104v151.16c.001 6.133-4.971 11.104-11.104 11.104z" fill="#fa6"></path></g></g></g><g fill="#ff9c33"><path d="m361.293 223.885h-49.01c-5.286 0-9.571-4.285-9.571-9.571v-2.454c0-5.286 4.285-9.571 9.571-9.571h49.01c5.286 0 9.571 4.285 9.571 9.571v2.454c.001 5.286-4.285 9.571-9.571 9.571z"></path><path d="m273.116 223.885h-49.01c-5.286 0-9.571-4.285-9.571-9.571v-2.454c0-5.286 4.285-9.571 9.571-9.571h49.01c5.286 0 9.571 4.285 9.571 9.571v2.454c0 5.286-4.285 9.571-9.571 9.571z"></path><path d="m458.019 133.691h-74.362c-3.223 0-5.846-2.622-5.846-5.845s2.623-5.846 5.846-5.846h46.537c2.761 0 5-2.239 5-5s-2.239-5-5-5h-72.792c-8.737 0-15.846 7.108-15.846 15.846s7.108 15.845 15.846 15.845h74.362c3.223 0 5.846 2.623 5.846 5.846v.349c0 3.223-2.623 5.846-5.846 5.846h-101.597c-8.737 0-15.845 7.108-15.845 15.846v7.839c0 2.761 2.239 5 5 5s5-2.239 5-5v-7.839c0-3.223 2.622-5.846 5.845-5.846h127.853c8.737 0 15.845-7.108 15.845-15.846v-.349c-.001-8.738-7.109-15.846-15.846-15.846zm-106.463-5.845c0-3.223 2.623-5.846 5.846-5.846h11.54c-.722 1.811-1.131 3.78-1.131 5.846 0 2.065.409 4.034 1.131 5.845h-11.54c-3.223 0-5.846-2.622-5.846-5.845zm112.308 22.04c0 3.223-2.622 5.846-5.845 5.846h-11.54c.722-1.811 1.131-3.78 1.131-5.846v-.349c0-2.066-.409-4.035-1.131-5.846h11.54c3.223 0 5.845 2.623 5.845 5.846z"></path></g></g><g><circle cx="142.952" cy="444.387" fill="#6c6cff" r="34.792"></circle><circle cx="142.952" cy="444.387" fill="#b2b2ff" r="17.884"></circle></g><g><path d="m413.012 243.691h-26.408c-2.761 0-5-2.239-5-5s2.239-5 5-5h26.408c2.761 0 5 2.239 5 5s-2.239 5-5 5z" fill="#b2b2ff"></path><g><g><path d="m416.694 261.895c-5.523 0-10-4.477-10-10v-16.407c0-5.523 4.477-10 10-10s10 4.477 10 10v16.407c0 5.522-4.477 10-10 10z" fill="#9393ff"></path></g></g></g><g><path d="m130.766 243.691h-26.407c-2.761 0-5-2.239-5-5s2.239-5 5-5h26.407c2.761 0 5 2.239 5 5s-2.239 5-5 5z" fill="#b2b2ff"></path><g><g><path d="m100.677 261.895c5.523 0 10-4.477 10-10v-16.407c0-5.523-4.477-10-10-10s-10 4.477-10 10v16.407c0 5.522 4.477 10 10 10z" fill="#9393ff"></path></g></g></g></g><g><g><circle cx="126.896" cy="91.036" fill="#fa6" r="60.809"></circle></g><g fill="#fff"><path d="m130.217 71.703v-14.204c0-2.761-2.239-5-5-5s-5 2.239-5 5v14.204c0 2.353-1.061 4.46-2.726 5.879v-20.083c0-2.761-2.239-5-5-5s-5 2.239-5 5v20.082c-1.664-1.418-2.725-3.525-2.725-5.878v-14.204c0-2.761-2.239-5-5-5s-5 2.239-5 5v14.204c0 8.037 5.381 14.831 12.725 16.996v35.874c0 2.761 2.239 5 5 5s5-2.239 5-5v-35.875c7.345-2.165 12.726-8.958 12.726-16.995z"></path><path d="m147.628 92.174v-34.675c0-2.761-2.239-5-5-5s-5 2.239-5 5v34.675c-6.603 2.12-11.398 8.314-11.398 15.612v5.388c0 9.042 7.356 16.398 16.398 16.398s16.398-7.356 16.398-16.398v-5.388c-.001-7.298-4.795-13.492-11.398-15.612zm1.397 21c0 3.528-2.87 6.398-6.398 6.398s-6.398-2.87-6.398-6.398v-5.388c0-3.528 2.87-6.398 6.398-6.398s6.398 2.87 6.398 6.398z"></path></g></g></g><g><path d="m108.16 343.702c-8.271 0-15-6.729-15-15s6.729-15 15-15 15 6.729 15 15-6.729 15-15 15zm0-20c-2.757 0-5 2.243-5 5s2.243 5 5 5 5-2.243 5-5-2.243-5-5-5z" fill="#6c6cff"></path></g><g><path d="m468.864 279.281c-8.271 0-15-6.729-15-15s6.729-15 15-15 15 6.729 15 15-6.729 15-15 15zm0-20c-2.757 0-5 2.243-5 5s2.243 5 5 5 5-2.243 5-5-2.243-5-5-5z" fill="#ff9c33"></path></g><g><path d="m433.878 477.271c-8.271 0-15-6.729-15-15s6.729-15 15-15 15 6.729 15 15-6.729 15-15 15zm0-20c-2.757 0-5 2.243-5 5s2.243 5 5 5 5-2.243 5-5-2.243-5-5-5z" fill="#ff6c6c"></path></g><g><path d="m72.885 207.314c-1.031 0-2.063-.318-2.939-.955l-3.859-2.804-3.859 2.804c-1.752 1.273-4.125 1.273-5.878 0-1.752-1.273-2.486-3.53-1.816-5.59l1.474-4.537-3.859-2.804c-1.752-1.273-2.486-3.53-1.816-5.59s2.589-3.455 4.755-3.455h4.771l1.474-4.537c.669-2.06 2.589-3.455 4.755-3.455s4.086 1.395 4.755 3.455l1.474 4.537h4.771c2.166 0 4.086 1.395 4.755 3.455s-.064 4.317-1.816 5.59l-3.859 2.804 1.474 4.537c.669 2.06-.064 4.317-1.816 5.59-.879.637-1.91.955-2.941.955z" fill="#ff6c6c"></path></g><g><path d="m415.299 335.949c-1.031 0-2.063-.318-2.939-.955-1.752-1.273-2.486-3.53-1.816-5.59l1.475-4.537-3.859-2.804c-1.752-1.273-2.486-3.53-1.816-5.59s2.589-3.455 4.755-3.455h4.771l1.474-4.537c.669-2.06 2.589-3.455 4.755-3.455 2.166 0 4.086 1.395 4.755 3.455l1.474 4.537h4.771c2.166 0 4.086 1.395 4.755 3.455s-.064 4.317-1.816 5.59l-3.86 2.804 1.475 4.537c.669 2.06-.064 4.317-1.816 5.59s-4.125 1.273-5.878 0l-3.859-2.804-3.86 2.804c-.878.637-1.909.955-2.941.955z" fill="#6c6cff"></path></g></g><path d="m416.694 225.487c-4.909 0-8.983 3.539-9.83 8.204h-20.26c-.003 0-.006.001-.01.001-.104-5.433-4.533-9.807-9.99-9.807h-235.838c-5.458 0-9.886 4.374-9.99 9.807-.003 0-.007-.001-.01-.001h-20.259c-.847-4.664-4.922-8.204-9.83-8.204-5.523 0-10 4.477-10 10v16.407c0 5.523 4.477 10 10 10s10-4.477 10-10v-8.204h20.089c.012 0 .022-.003.034-.003.3 9.157 6.742 16.743 15.349 18.781 6.494 19.193 17.696 36.215 32.235 49.688l-35.465 97.439c-19.2.018-34.759 15.587-34.759 34.791 0 19.215 15.577 34.792 34.792 34.792s34.792-15.577 34.792-34.792c0-11.313-5.403-21.361-13.766-27.715l7.118-19.555h77.515v64.475c0 6.133 4.972 11.104 11.104 11.104s11.104-4.972 11.104-11.104v-64.475h75.456l22.971 63.112c2.098 5.763 8.47 8.734 14.233 6.637 5.763-2.098 8.734-8.47 6.637-14.233l-50.411-138.504c15.874-14.009 28.025-32.138 34.775-52.718 6.936-2.975 11.831-9.761 12.092-17.723.011 0 .022.003.033.003h20.09v8.204c0 5.523 4.477 10 10 10s10-4.477 10-10v-16.407c-.001-5.523-4.478-10-10.001-10zm-237.515 149.42 17.708-48.653c15.298 9.473 32.876 15.612 51.724 17.404v31.249zm159.013 0h-67.372v-31.172c18.194-1.601 35.224-7.253 50.186-16.047z" fill="url(#SVGID_2_)"></path></g></svg>