<!-- icon666.com - MILLIONS vector ICONS FREE --><svg version="1.1" id="Layer_1" xmlns="http://www.w3.org/2000/svg" xmlns:xlink="http://www.w3.org/1999/xlink" x="0px" y="0px" viewBox="0 0 512 512" style="enable-background:new 0 0 512 512;" xml:space="preserve"><path style="fill:#FFCDA5;" d="M419.576,161.332c0,36.071-29.242,65.313-65.313,65.313s-65.313-29.242-65.313-65.313 c0-7.917,1.412-15.499,3.985-22.517c0.596-1.632,1.265-3.232,1.998-4.8c10.333-22.433,33.017-37.996,59.331-37.996 C390.334,96.019,419.576,125.261,419.576,161.332z"></path><path style="fill:#EDB892;" d="M318.756,161.33c0-30.941,21.524-56.839,50.41-63.584c-4.789-1.118-9.773-1.729-14.903-1.729 c-36.071,0-65.312,29.242-65.312,65.312s29.241,65.312,65.312,65.312c5.13,0,10.113-0.61,14.903-1.729 C340.28,218.169,318.756,192.272,318.756,161.33z"></path><path style="fill:#F74F7B;" d="M419.576,161.332c0,11.64-3.043,22.569-8.388,32.045l-0.01-0.01L303.1,120.764l-0.021-0.01 c11.965-15.071,30.445-24.734,51.184-24.734C390.334,96.019,419.576,125.261,419.576,161.332z"></path><path style="fill:#E52E66;" d="M369.165,97.745c-20.133,4.706-36.699,18.71-44.877,37.253l-21.189-14.234l-0.021-0.01 c11.965-15.071,30.445-24.734,51.184-24.734c5.083,0,10.04,0.586,14.788,1.684C369.092,97.724,369.123,97.734,369.165,97.745z"></path><path style="fill:#F74F7B;" d="M310.275,145.279l-3.723,3.723l-13.617-8.618c0.596-1.632,1.265-3.232,1.998-4.8L310.275,145.279z"></path><path style="fill:#1BA8C9;" d="M328.201,160.747c-1.809,2.771-4.821,4.278-7.907,4.278c-1.757,0-3.535-0.492-5.114-1.516 l-4.204-2.73l-6.254-4.068c-4.361-2.834-5.595-8.66-2.761-13.021c2.834-4.361,8.66-5.595,13.021-2.761l10.458,6.798 c0.376,0.251,0.732,0.512,1.067,0.805C329.988,151.564,330.783,156.762,328.201,160.747z"></path><path style="fill:#53C5F2;" d="M328.201,160.747c-1.809,2.771-4.821,4.278-7.907,4.278c-1.757,0-3.535-0.492-5.114-1.516 l-4.204-2.73c-3.483-3.022-4.277-8.231-1.694-12.215c2.834-4.351,8.66-5.595,13.021-2.761l4.204,2.73 C329.988,151.564,330.783,156.762,328.201,160.747z"></path><g><path style="fill:#FFCDA5;" d="M282.078,214.462H118.654c-11.787,0-22.13,7.875-25.268,19.244 c-0.648,2.353-0.962,4.706-0.962,7.007c0,13.272,10.187,24.985,24.17,26.094l24.651,1.945l-0.105,1.297v171.205 c0,4.539,0.418,8.942,1.213,13.167c5.574,29.608,29.629,50.818,57.396,55.179c11.567,1.82,23.783,0.722,35.569-3.932 c3.294-1.286,6.557-2.855,9.758-4.717c12.121-7.039,24.473-15.311,36.573-25.038c49.772-39.91,95.214-104.093,101.834-206.45 C383.485,221.343,338.794,214.462,282.078,214.462z M208.168,374.309V274.179l0.01-0.146l20.007,1.579l26.565,2.102 C246.519,340.078,208.168,374.309,208.168,374.309z"></path><path style="fill:#FFCDA5;" d="M203.66,0v214.462h-55.074l13.157-105.557l-11.002-15.248c-4.047-5.637-3.932-12.749,0.199-18.355 c15.133-20.52,27.14-58.4,29.493-66.139c0.272-0.91,0.418-1.401,0.418-1.401L203.66,0z"></path></g><g><path style="fill:#EDB892;" d="M163.971,79.798c0,15.688,7.321,30.33,7.321,30.33l-6.704,104.334h-16.001l13.157-105.557 l-11.002-15.248c-4.047-5.637-3.932-12.749,0.199-18.355c15.133-20.52,27.14-58.4,29.493-66.139 C177.839,17.968,163.971,65.585,163.971,79.798z"></path><path style="fill:#EDB892;" d="M281.649,475.913c-12.1,9.726-24.452,17.999-36.573,25.038 c-14.673,8.524-30.528,10.981-45.327,8.649l8.419-135.291c0,0,38.351-34.231,46.582-96.594l23.448,1.851 C278.198,279.566,216.524,410.799,281.649,475.913z"></path></g><path style="fill:#F74F7B;" d="M208.168,375.878l-55.252,55.179l-11.776,11.755v0.01c0,49.636,50.065,81.796,94.179,64.414 c3.294-1.286,6.557-2.855,9.758-4.717c6.275-3.65,12.613-7.624,18.951-11.954L208.168,375.878z"></path><g><path style="fill:#EDB892;" d="M153.93,269.756l-12.686-1.004l-24.651-1.945c-13.983-1.109-24.17-12.822-24.17-26.094 c0-2.301,0.314-4.654,0.962-7.007c3.138-11.368,13.481-19.244,25.268-19.244h29.932C148.587,214.462,121.875,237.7,153.93,269.756z "></path><polygon style="fill:#EDB892;" points="208.179,274.033 208.168,274.179 208.168,296.341 141.14,289.825 141.14,270.048 141.244,268.751 "></polygon><path style="fill:#EDB892;" d="M154.35,291.112l-1.433,138.376l-10.563,24.933c-0.795-4.225-1.213-8.628-1.213-13.167V286.991 L154.35,291.112z"></path></g><path style="fill:#E52E66;" d="M235.318,507.236c-44.114,17.382-94.179-14.778-94.179-64.414v-0.01l11.776-11.755 C164.84,464.419,188.548,501.85,235.318,507.236z"></path></svg>