<!-- icon666.com - MILLIONS vector ICONS FREE --><svg version="1.1" id="Capa_1" xmlns="http://www.w3.org/2000/svg" xmlns:xlink="http://www.w3.org/1999/xlink" x="0px" y="0px" viewBox="0 0 426.562 426.562" style="enable-background:new 0 0 426.562 426.562;" xml:space="preserve"><path style="fill:#8C6279;" d="M332.532,149.348H96.728c-15.74,0-28.499,12.758-28.499,28.498c0,63.422,0,147.993,0,220.212 c0,15.738,12.759,28.499,28.499,28.499h235.806c15.74,0,28.498-12.761,28.498-28.499c0-22.477,0-191.805,0-220.212 C361.032,162.105,348.275,149.348,332.532,149.348z"></path><g><circle style="fill:#FF8AA6;" cx="113.974" cy="375.892" r="32.561"></circle><circle style="fill:#FF8AA6;" cx="171.894" cy="280.592" r="32.561"></circle><circle style="fill:#FF8AA6;" cx="258.634" cy="375.892" r="32.561"></circle><path style="fill:#FF8AA6;" d="M352.718,281.271c0,17.985-14.58,32.563-32.561,32.563c-17.982,0-32.561-14.578-32.561-32.563 c0-17.979,14.578-32.561,32.561-32.561C338.138,248.71,352.718,263.292,352.718,281.271z"></path></g><rect x="68.224" y="209.102" style="fill:#FFCFD8;" width="292.8" height="19.481"></rect><path style="fill:#FFFFED;" d="M361.032,177.846c0-15.74-12.758-28.498-28.498-28.498H96.728c-15.74,0-28.499,12.758-28.499,28.498 V209.1h292.803V177.846z"></path><path style="fill:#FF8C9D;" d="M183.639,168.463c0,0-45.894,33.532-45.894,114.275l-26.528-22.125l-24.551,22.125 c0,0,10.288-97.844,96.973-132.991V168.463z"></path><path style="fill:#E85A7E;" d="M247.757,114.273c0,0,35.043-33.531,35.043-114.273l26.527,22.123L333.878,0 c0,0,0.564,97.843-86.121,132.99V114.273z"></path><g><path style="fill:#F57191;" d="M76.309,149.348c-19.884-0.426-42.797-29.946-28.009-57.299 c41.953-77.599,155.659,37.452,155.659,37.452v19.847H76.309z M163.863,131.381c0,0-69.079-49.532-82.995-23.521 c-6.639,12.412,1.774,23.207,13.693,23.271L163.863,131.381z"></path><path style="fill:#F57191;" d="M222.601,149.348v-19.847c0,0,113.709-115.051,155.662-37.452 c14.785,27.354-8.125,56.873-28.01,57.299H222.601z M331.997,131.131c11.918-0.063,20.336-10.858,13.693-23.271 c-13.914-26.012-82.994,23.521-82.994,23.521L331.997,131.131z"></path></g><path style="fill:#FFB26E;" d="M234.122,145.074c0,2.361-1.639,4.274-3.668,4.274h-34.287c-2.026,0-3.668-1.913-3.668-4.274v-24.968 c0-2.361,1.642-4.275,3.668-4.275h34.287c2.029,0,3.668,1.914,3.668,4.275V145.074z"></path><rect x="183.634" y="149.352" style="fill:#F57191;" width="64.12" height="277.21"></rect><path style="fill:#FFBDCE;" d="M62.76,113.461c-4.538,0-8.108-3.686-8.108-8.095c0-20.272,19.395-32.89,37.726-32.89 c6.543,0,12.078,1.565,12.078,8.079c0,4.558-2.979,8.057-9.729,8.057c-4.738,0-23.029,1.059-23.886,17.176 C70.612,110.111,67.037,113.461,62.76,113.461z"></path></svg>